
<svg xmlns="http://www.w3.org/2000/svg" width="48" height="48" viewBox="0 0 48 48" fill="none">
  <path d="M16 10H32L30 26H18L16 10Z" fill="#D4AF37" stroke="#8B0000" stroke-width="1.5"/>
  <path d="M18 26L24 30L30 26" stroke="#8B0000" stroke-width="1.5"/>
  <path d="M20 38H28" stroke="#8B0000" stroke-width="1.5"/>
  <path d="M24 30V38" stroke="#8B0000" stroke-width="1.5"/>
  <path d="M16 10H32" stroke="#8B0000" stroke-width="1.5"/>
  <path d="M16 14H31" stroke="#8B0000" stroke-width="1"/>
  <ellipse cx="24" cy="19" rx="8" ry="2" fill="#D4AF37" stroke="#8B0000" stroke-width="1"/>
  <path d="M27 38C27 39.6569 25.6569 41 24 41C22.3431 41 21 39.6569 21 38C21 36.3431 22.3431 35 24 35C25.6569 35 27 36.3431 27 38Z" fill="#D4AF37" stroke="#8B0000" stroke-width="1.5"/>
  <circle cx="16" cy="10" r="2" fill="#D4AF37" stroke="#8B0000" stroke-width="1"/>
  <circle cx="32" cy="10" r="2" fill="#D4AF37" stroke="#8B0000" stroke-width="1"/>
</svg>
