
<svg xmlns="http://www.w3.org/2000/svg" width="48" height="48" viewBox="0 0 48 48" fill="none">
  <rect x="22" y="20" width="4" height="24" rx="2" fill="#8B4513" stroke="#5D2906" stroke-width="1.5"/>
  <path d="M21 20H27L24 16L21 20Z" fill="#8B4513" stroke="#5D2906" stroke-width="1.5"/>
  <path d="M24 4C24 4 18 8 18 14C18 18 22 20 24 20C26 20 30 18 30 14C30 8 24 4 24 4Z" fill="#FF9900" stroke="#FF4500" stroke-width="1.5"/>
  <path d="M24 6C24 6 20 9 20 14C20 16 22 18 24 18C26 18 28 16 28 14C28 9 24 6 24 6Z" fill="#FFCC00" stroke="#FF4500" stroke-width="1.5"/>
  <path d="M24 8C24 8 22 10 22 14C22 15 23 16 24 16C25 16 26 15 26 14C26 10 24 8 24 8Z" fill="#FFFF00" stroke="#FF4500" stroke-width="1"/>
  <ellipse cx="24" cy="42" rx="6" ry="2" fill="#8B4513" stroke="#5D2906" stroke-width="1.5"/>
  <path d="M24 14C24 14 22 15 22 16C22 17 24 17 24 17" stroke="#FF4500" stroke-width="1"/>
</svg>
