
<svg xmlns="http://www.w3.org/2000/svg" width="48" height="48" viewBox="0 0 48 48" fill="none">
  <circle cx="16" cy="16" r="10" fill="#D4AF37" stroke="#8B0000" stroke-width="2"/>
  <circle cx="16" cy="16" r="6" fill="#D4AF37" stroke="#8B0000" stroke-width="1.5"/>
  <circle cx="16" cy="16" r="2" fill="#8B0000"/>
  <path d="M24 16L42 16L42 20L38 20L38 24L34 24L34 28L30 28L30 32L26 32L26 36L22 36L22 40L18 40L18 36L22 36L22 32L26 32L26 28L30 28L30 24L34 24L34 20L38 20L38 16L24 16" stroke="#8B0000" stroke-width="2"/>
</svg>
