
<svg xmlns="http://www.w3.org/2000/svg" width="48" height="48" viewBox="0 0 48 48" fill="none">
  <path d="M38 8H10C10 8 6 8 6 12V36C6 36 6 40 10 40H14V12C14 12 14 8 18 8H38V8Z" fill="#F5DEB3" stroke="#8B0000" stroke-width="2"/>
  <path d="M38 8H18C18 8 14 8 14 12V40H38C38 40 42 40 42 36V12C42 12 42 8 38 8Z" fill="#F5DEB3" stroke="#8B0000" stroke-width="2"/>
  <path d="M20 16H36" stroke="#8B0000" stroke-width="1.5"/>
  <path d="M20 20H36" stroke="#8B0000" stroke-width="1.5"/>
  <path d="M20 24H36" stroke="#8B0000" stroke-width="1.5"/>
  <path d="M20 28H30" stroke="#8B0000" stroke-width="1.5"/>
  <circle cx="35" cy="32" r="3" fill="#8B0000"/>
</svg>
