
<svg xmlns="http://www.w3.org/2000/svg" width="512" height="512" viewBox="0 0 512 512" fill="none">
  <!-- Background -->
  <rect width="512" height="512" rx="80" fill="#0D0D20"/>
  
  <!-- Throne Base -->
  <path d="M128 384H384V448H128V384Z" fill="#9B2335" stroke="#D4AF37" stroke-width="8"/>
  
  <!-- Throne Back -->
  <path d="M150 214H362V384H150V214Z" fill="#9B2335" stroke="#D4AF37" stroke-width="8"/>
  
  <!-- Throne Ornaments -->
  <path d="M170 234H212V276H170V234Z" fill="#D4AF37"/>
  <path d="M300 234H342V276H300V234Z" fill="#D4AF37"/>
  <path d="M212 320H300V362H212V320Z" fill="#D4AF37"/>
  
  <!-- Crown -->
  <path d="M256 86L192 150L170 128L256 64L342 128L320 150L256 86Z" fill="#D4AF37" stroke="#9B2335" stroke-width="4"/>
  <path d="M192 150H320V192H192V150Z" fill="#D4AF37" stroke="#9B2335" stroke-width="4"/>
  <circle cx="224" cy="170" r="12" fill="#9B2335"/>
  <circle cx="256" cy="170" r="12" fill="#9B2335"/>
  <circle cx="288" cy="170" r="12" fill="#9B2335"/>
  
  <!-- Coins -->
  <circle cx="128" cy="426" r="24" fill="#D4AF37" stroke="#9B2335" stroke-width="3"/>
  <circle cx="128" cy="426" r="16" fill="#9B2335" stroke="#D4AF37" stroke-width="1"/>
  <text x="128" y="430" font-family="Arial" font-size="14" fill="#D4AF37" text-anchor="middle">$</text>
  
  <circle cx="384" cy="426" r="24" fill="#D4AF37" stroke="#9B2335" stroke-width="3"/>
  <circle cx="384" cy="426" r="16" fill="#9B2335" stroke="#D4AF37" stroke-width="1"/>
  <text x="384" y="430" font-family="Arial" font-size="14" fill="#D4AF37" text-anchor="middle">$</text>
  
  <circle cx="106" cy="320" r="24" fill="#D4AF37" stroke="#9B2335" stroke-width="3"/>
  <circle cx="106" cy="320" r="16" fill="#9B2335" stroke="#D4AF37" stroke-width="1"/>
  <text x="106" y="324" font-family="Arial" font-size="14" fill="#D4AF37" text-anchor="middle">$</text>
  
  <circle cx="406" cy="320" r="24" fill="#D4AF37" stroke="#9B2335" stroke-width="3"/>
  <circle cx="406" cy="320" r="16" fill="#9B2335" stroke="#D4AF37" stroke-width="1"/>
  <text x="406" y="324" font-family="Arial" font-size="14" fill="#D4AF37" text-anchor="middle">$</text>
  
  <!-- Coin pile -->
  <circle cx="160" cy="448" r="16" fill="#D4AF37" stroke="#9B2335" stroke-width="2"/>
  <circle cx="176" cy="458" r="16" fill="#D4AF37" stroke="#9B2335" stroke-width="2"/>
  <circle cx="352" cy="448" r="16" fill="#D4AF37" stroke="#9B2335" stroke-width="2"/>
  <circle cx="336" cy="458" r="16" fill="#D4AF37" stroke="#9B2335" stroke-width="2"/>
</svg>
