
<svg xmlns="http://www.w3.org/2000/svg" width="512" height="512" viewBox="0 0 512 512" fill="none">
  <!-- Background -->
  <rect width="512" height="512" rx="80" fill="#1A1A2E"/>
  
  <!-- Throne Base -->
  <path d="M128 384H384V448H128V384Z" fill="#5D4037" stroke="#D4AF37" stroke-width="8"/>
  
  <!-- Throne Back -->
  <path d="M150 214H362V384H150V214Z" fill="#5D4037" stroke="#D4AF37" stroke-width="8"/>
  
  <!-- Red Cushion -->
  <rect x="170" y="234" width="172" height="150" fill="#9B2335" />
  
  <!-- Cushion tufted buttons pattern -->
  <circle cx="190" cy="254" r="8" fill="#D4AF37" />
  <circle cx="230" cy="254" r="8" fill="#D4AF37" />
  <circle cx="270" cy="254" r="8" fill="#D4AF37" />
  <circle cx="310" cy="254" r="8" fill="#D4AF37" />
  
  <circle cx="190" cy="294" r="8" fill="#D4AF37" />
  <circle cx="230" cy="294" r="8" fill="#D4AF37" />
  <circle cx="270" cy="294" r="8" fill="#D4AF37" />
  <circle cx="310" cy="294" r="8" fill="#D4AF37" />
  
  <circle cx="190" cy="334" r="8" fill="#D4AF37" />
  <circle cx="230" cy="334" r="8" fill="#D4AF37" />
  <circle cx="270" cy="334" r="8" fill="#D4AF37" />
  <circle cx="310" cy="334" r="8" fill="#D4AF37" />
  
  <!-- Throne armrests with skull decorations -->
  <path d="M120 320L150 280V384H120V320Z" fill="#4E342E" stroke="#D4AF37" stroke-width="4"/>
  <path d="M392 320L362 280V384H392V320Z" fill="#4E342E" stroke="#D4AF37" stroke-width="4"/>
  
  <!-- Skull motifs on armrests -->
  <circle cx="135" cy="310" r="15" fill="#4E342E" stroke="#D4AF37" stroke-width="2"/>
  <circle cx="377" cy="310" r="15" fill="#4E342E" stroke="#D4AF37" stroke-width="2"/>
  
  <!-- Throne top with ornate spikes -->
  <path d="M150 214L170 164L210 214L256 150L302 214L342 164L362 214" fill="#5D4037" stroke="#D4AF37" stroke-width="8"/>
  
  <!-- Crown -->
  <path d="M192 150L256 86L320 150L300 180L212 180L192 150Z" fill="#D4AF37" stroke="#5D4037" stroke-width="4"/>
  <rect x="192" y="180" width="128" height="34" fill="#D4AF37" stroke="#5D4037" stroke-width="4"/>
  
  <!-- Crown Jewels -->
  <circle cx="220" cy="197" r="10" fill="#9B2335"/>
  <circle cx="256" cy="197" r="10" fill="#1F4788"/>
  <circle cx="292" cy="197" r="10" fill="#2C784A"/>
  
  <!-- Smaller jewels on crown points -->
  <circle cx="192" cy="150" r="6" fill="#9B2335"/>
  <circle cx="256" cy="100" r="6" fill="#1F4788"/>
  <circle cx="320" cy="150" r="6" fill="#2C784A"/>
  
  <!-- Pile of gold coins -->
  <ellipse cx="256" cy="448" rx="140" ry="25" fill="#D4AF37" opacity="0.9"/>
  
  <!-- Individual Coins -->
  <circle cx="150" cy="426" r="24" fill="#D4AF37" stroke="#5D4037" stroke-width="3"/>
  <text x="150" y="434" font-family="Arial" font-size="24" fill="#5D4037" text-anchor="middle" font-weight="bold">$</text>
  
  <circle cx="362" cy="426" r="24" fill="#D4AF37" stroke="#5D4037" stroke-width="3"/>
  <text x="362" y="434" font-family="Arial" font-size="24" fill="#5D4037" text-anchor="middle" font-weight="bold">$</text>
  
  <circle cx="106" cy="390" r="20" fill="#D4AF37" stroke="#5D4037" stroke-width="2.5"/>
  <text x="106" y="397" font-family="Arial" font-size="20" fill="#5D4037" text-anchor="middle" font-weight="bold">$</text>
  
  <circle cx="406" cy="390" r="20" fill="#D4AF37" stroke="#5D4037" stroke-width="2.5"/>
  <text x="406" y="397" font-family="Arial" font-size="20" fill="#5D4037" text-anchor="middle" font-weight="bold">$</text>
  
  <circle cx="200" cy="448" r="18" fill="#D4AF37" stroke="#5D4037" stroke-width="2"/>
  <text x="200" y="454" font-family="Arial" font-size="18" fill="#5D4037" text-anchor="middle" font-weight="bold">$</text>
  
  <circle cx="312" cy="448" r="18" fill="#D4AF37" stroke="#5D4037" stroke-width="2"/>
  <text x="312" y="454" font-family="Arial" font-size="18" fill="#5D4037" text-anchor="middle" font-weight="bold">$</text>
</svg>
