
<svg xmlns="http://www.w3.org/2000/svg" width="48" height="48" viewBox="0 0 48 48" fill="none">
  <rect width="48" height="48" rx="8" fill="#0D0D20"/>
  <path d="M24 8C21.8 8 20 9.8 20 12C20 14.2 21.8 16 24 16C26.2 16 28 14.2 28 12C28 9.8 26.2 8 24 8Z" fill="#D4AF37"/>
  <path d="M32 22C32 19.8 30.2 18 28 18H20C17.8 18 16 19.8 16 22V24C16 25.1 16.9 26 18 26C19.1 26 20 25.1 20 24V22C20 21.4 20.4 21 21 21H27C27.6 21 28 21.4 28 22V24C28 25.1 28.9 26 30 26C31.1 26 32 25.1 32 24V22Z" fill="#D4AF37"/>
  <path d="M34 30C34 28 32.2 26 30 26H18C15.8 26 14 28 14 30V38C14 40 15.8 42 18 42H30C32.2 42 34 40 34 38V30Z" fill="#D4AF37"/>
  <path d="M22 33L22 35" stroke="#0D0D20" stroke-width="2" stroke-linecap="round"/>
  <path d="M26 33L26 35" stroke="#0D0D20" stroke-width="2" stroke-linecap="round"/>
</svg>
