
<svg xmlns="http://www.w3.org/2000/svg" width="48" height="48" viewBox="0 0 48 48" fill="none">
  <rect width="48" height="48" rx="8" fill="#0D0D20"/>
  <path d="M24 9C22.8065 9 21.6619 9.42143 20.818 10.1716C19.9741 10.9217 19.5 11.9391 19.5 13C19.5 14.0609 19.9741 15.0783 20.818 15.8284C21.6619 16.5786 22.8065 17 24 17C25.1935 17 26.3381 16.5786 27.182 15.8284C28.0259 15.0783 28.5 14.0609 28.5 13C28.5 11.9391 28.0259 10.9217 27.182 10.1716C26.3381 9.42143 25.1935 9 24 9Z" fill="#D4AF37" stroke="#D4AF37" stroke-width="1.5"/>
  <path d="M31.5 22C31.5 20.8065 31.0786 19.6619 30.3284 18.818C29.5783 17.9741 28.5609 17.5 27.5 17.5L20.5 17.5C19.4391 17.5 18.4217 17.9741 17.6716 18.818C16.9214 19.6619 16.5 20.8065 16.5 22L16.5 24.5C16.5 24.7652 16.6054 25.0196 16.7929 25.2071C16.9804 25.3946 17.2348 25.5 17.5 25.5C17.7652 25.5 18.0196 25.3946 18.2071 25.2071C18.3946 25.0196 18.5 24.7652 18.5 24.5L18.5 22C18.5 21.4696 18.7107 20.9609 19.0858 20.5858C19.4609 20.2107 19.9696 20 20.5 20L27.5 20C28.0304 20 28.5391 20.2107 28.9142 20.5858C29.2893 20.9609 29.5 21.4696 29.5 22L29.5 24.5C29.5 24.7652 29.6054 25.0196 29.7929 25.2071C29.9804 25.3946 30.2348 25.5 30.5 25.5C30.7652 25.5 31.0196 25.3946 31.2071 25.2071C31.3946 25.0196 31.5 24.7652 31.5 24.5L31.5 22Z" fill="#D4AF37" stroke="#D4AF37" stroke-width="1.5"/>
  <path d="M34 30.4667C34 29.08 32.875 27.9333 31.5 27.9333H16.5C15.125 27.9333 14 29.08 14 30.4667V37.4667C14 38.8533 15.125 40 16.5 40H31.5C32.875 40 34 38.8533 34 37.4667V30.4667Z" fill="#D4AF37" stroke="#D4AF37" stroke-width="1.5"/>
  <path d="M22 33L22 35" stroke="#0D0D20" stroke-width="2" stroke-linecap="round"/>
  <path d="M26 33L26 35" stroke="#0D0D20" stroke-width="2" stroke-linecap="round"/>
  <path d="M20 24L20 28" stroke="#D4AF37" stroke-width="1.5" stroke-linecap="round"/>
  <path d="M28 24L28 28" stroke="#D4AF37" stroke-width="1.5" stroke-linecap="round"/>
</svg>
