
<svg xmlns="http://www.w3.org/2000/svg" width="48" height="48" viewBox="0 0 48 48" fill="none">
  <rect width="48" height="48" rx="8" fill="#0D0D20"/>
  <!-- Throne Base -->
  <path d="M12 36H36V42H12V36Z" fill="#8B0000" stroke="#D4AF37" stroke-width="1"/>
  <!-- Throne Back -->
  <path d="M14 20H34V36H14V20Z" fill="#8B0000" stroke="#D4AF37" stroke-width="1"/>
  <!-- Throne Ornaments -->
  <path d="M16 22H20V26H16V22Z" fill="#D4AF37"/>
  <path d="M28 22H32V26H28V22Z" fill="#D4AF37"/>
  <path d="M20 30H28V34H20V30Z" fill="#D4AF37"/>
  <!-- Crown -->
  <path d="M24 8L18 14L16 12L24 6L32 12L30 14L24 8Z" fill="#D4AF37" stroke="#8B0000" stroke-width="0.5"/>
  <path d="M18 14H30V18H18V14Z" fill="#D4AF37" stroke="#8B0000" stroke-width="0.5"/>
  <!-- Coins -->
  <circle cx="14" cy="40" r="2" fill="#D4AF37" stroke="#8B0000" stroke-width="0.5"/>
  <circle cx="34" cy="40" r="2" fill="#D4AF37" stroke="#8B0000" stroke-width="0.5"/>
  <circle cx="10" cy="30" r="2" fill="#D4AF37" stroke="#8B0000" stroke-width="0.5"/>
  <circle cx="38" cy="30" r="2" fill="#D4AF37" stroke="#8B0000" stroke-width="0.5"/>
</svg>
