
<svg xmlns="http://www.w3.org/2000/svg" width="48" height="48" viewBox="0 0 48 48" fill="none">
  <rect width="48" height="48" rx="8" fill="#0D0D20"/>
  <path d="M24 10C23.0194 10 22.0787 10.3934 21.3983 11.0933C20.7179 11.7932 20.3333 12.7601 20.3333 13.7692V14.6154H18.6667C17.6861 14.6154 16.7454 15.0088 16.065 15.7087C15.3846 16.4086 15 17.3755 15 18.3846C15 19.3937 15.3846 20.3606 16.065 21.0605C16.7454 21.7604 17.6861 22.1538 18.6667 22.1538H20.3333V23.8462H18.6667C17.6861 23.8462 16.7454 24.2396 16.065 24.9395C15.3846 25.6394 15 26.6063 15 27.6154C15 28.6245 15.3846 29.5914 16.065 30.2913C16.7454 30.9912 17.6861 31.3846 18.6667 31.3846H20.3333V32.2308C20.3333 33.2399 20.7179 34.2068 21.3983 34.9067C22.0787 35.6066 23.0194 36 24 36C24.9806 36 25.9213 35.6066 26.6017 34.9067C27.2821 34.2068 27.6667 33.2399 27.6667 32.2308V31.3846H29.3333C30.3139 31.3846 31.2546 30.9912 31.935 30.2913C32.6154 29.5914 33 28.6245 33 27.6154C33 26.6063 32.6154 25.6394 31.935 24.9395C31.2546 24.2396 30.3139 23.8462 29.3333 23.8462H27.6667V22.1538H29.3333C30.3139 22.1538 31.2546 21.7604 31.935 21.0605C32.6154 20.3606 33 19.3937 33 18.3846C33 17.3755 32.6154 16.4086 31.935 15.7087C31.2546 15.0088 30.3139 14.6154 29.3333 14.6154H27.6667V13.7692C27.6667 12.7601 27.2821 11.7932 26.6017 11.0933C25.9213 10.3934 24.9806 10 24 10Z" fill="#D4AF37" stroke="#D4AF37" stroke-width="1.5"/>
  <path d="M17.3333 36L20.3333 32.2308" stroke="#D4AF37" stroke-width="1.5" stroke-linecap="round"/>
  <path d="M30.6667 36L27.6667 32.2308" stroke="#D4AF37" stroke-width="1.5" stroke-linecap="round"/>
  <path d="M15 18.3846L12 16.6154" stroke="#D4AF37" stroke-width="1.5" stroke-linecap="round"/>
  <path d="M15 27.6154L12 29.3846" stroke="#D4AF37" stroke-width="1.5" stroke-linecap="round"/>
  <path d="M33 18.3846L36 16.6154" stroke="#D4AF37" stroke-width="1.5" stroke-linecap="round"/>
  <path d="M33 27.6154L36 29.3846" stroke="#D4AF37" stroke-width="1.5" stroke-linecap="round"/>
</svg>
