
<svg xmlns="http://www.w3.org/2000/svg" width="200" height="48" viewBox="0 0 200 48" fill="none">
  <!-- Throne -->
  <path d="M12 36H36V42H12V36Z" fill="#9B2335" stroke="#D4AF37" stroke-width="1"/>
  <path d="M14 20H34V36H14V20Z" fill="#9B2335" stroke="#D4AF37" stroke-width="1"/>
  <path d="M16 22H20V26H16V22Z" fill="#D4AF37"/>
  <path d="M28 22H32V26H28V22Z" fill="#D4AF37"/>
  <path d="M20 30H28V34H20V30Z" fill="#D4AF37"/>
  
  <!-- Crown -->
  <path d="M24 8L18 14L16 12L24 6L32 12L30 14L24 8Z" fill="#D4AF37" stroke="#9B2335" stroke-width="0.5"/>
  <path d="M18 14H30V18H18V14Z" fill="#D4AF37" stroke="#9B2335" stroke-width="0.5"/>
  
  <!-- Text -->
  <path d="M58 18C58 16.8954 58.8954 16 60 16H62C63.1046 16 64 16.8954 64 18V30C64 31.1046 63.1046 32 62 32H60C58.8954 32 58 31.1046 58 30V18Z" fill="#D4AF37"/>
  <path d="M66 18C66 16.8954 66.8954 16 68 16H72C74.2091 16 76 17.7909 76 20V22C76 24.2091 74.2091 26 72 26H68V30C68 31.1046 67.1046 32 66 32V18Z" fill="#D4AF37"/>
  <path d="M68 22H72V20H68V22Z" fill="#0D0D20"/>
  <path d="M78 18C78 16.8954 78.8954 16 80 16H84C86.2091 16 88 17.7909 88 20V28C88 30.2091 86.2091 32 84 32H80C78.8954 32 78 31.1046 78 30V18Z" fill="#D4AF37"/>
  <path d="M80 28H84V20H80V28Z" fill="#0D0D20"/>
  <path d="M90 18C90 16.8954 90.8954 16 92 16H94C95.1046 16 96 16.8954 96 18V26H100V18C100 16.8954 100.895 16 102 16H104C105.105 16 106 16.8954 106 18V30C106 31.1046 105.105 32 104 32H92C90.8954 32 90 31.1046 90 30V18Z" fill="#D4AF37"/>
  <path d="M108 18C108 16.8954 108.895 16 110 16H114C116.209 16 118 17.7909 118 20V22C118 24.2091 116.209 26 114 26H110V30C110 31.1046 109.105 32 108 32V18Z" fill="#D4AF37"/>
  <path d="M110 22H114V20H110V22Z" fill="#0D0D20"/>
  <path d="M120 24C120 19.5817 123.582 16 128 16H130C134.418 16 138 19.5817 138 24C138 28.4183 134.418 32 130 32H128C123.582 32 120 28.4183 120 24Z" fill="#D4AF37"/>
  <path d="M128 28H130C132.209 28 134 26.2091 134 24C134 21.7909 132.209 20 130 20H128C125.791 20 124 21.7909 124 24C124 26.2091 125.791 28 128 28Z" fill="#0D0D20"/>
  <path d="M140 18C140 16.8954 140.895 16 142 16H144C145.105 16 146 16.8954 146 18V26H150V18C150 16.8954 150.895 16 152 16H154C155.105 16 156 16.8954 156 18V30C156 31.1046 155.105 32 154 32H142C140.895 32 140 31.1046 140 30V18Z" fill="#D4AF37"/>
  <path d="M158 18C158 16.8954 158.895 16 160 16H164C166.209 16 168 17.7909 168 20V28C168 30.2091 166.209 32 164 32H160C158.895 32 158 31.1046 158 30V18Z" fill="#D4AF37"/>
  <path d="M160 28H164V20H160V28Z" fill="#0D0D20"/>
  <path d="M170 18C170 16.8954 170.895 16 172 16H184C185.105 16 186 16.8954 186 18V20C186 21.1046 185.105 22 184 22H174V24H182C183.105 24 184 24.8954 184 26V30C184 31.1046 183.105 32 182 32H172C170.895 32 170 31.1046 170 30V28C170 26.8954 170.895 26 172 26H180V24H172C170.895 24 170 23.1046 170 22V18Z" fill="#D4AF37"/>
  
  <!-- Coin -->
  <circle cx="190" cy="24" r="8" fill="#D4AF37" stroke="#9B2335" stroke-width="1"/>
  <text x="190" y="28" font-family="Arial" font-size="10" fill="#9B2335" text-anchor="middle">$</text>
</svg>
